Work

For some dumb reason I will never understand someone muxed an
untouched VOB to 192KB/s AC3 audio. Anyways I muxed and synced it
with a 320CBR mp3 and encoded the video with below settings.

File

Format                           : Matroska
File size                        : 55.2 MiB
Duration                         : 4mn 14s
Overall bit rate                 : 1 824 Kbps
Encoded date                     : UTC 2009-07-23 01:37:39
Writing application              : mkvmerge v2.9.7 ('Tenderness')
Writing library                  : libebml v0.7.7 + libmatroska v0.8.1

Video

Format                           : AVC
Format/Info                      : Advanced Video Codec
Format profile                   : High@L3.1
Format settings, CABAC           : Yes
Format settings, ReFrames        : 8 frames
Muxing mode                      : Container profile=Unknown@3.1
Codec ID                         : V_MPEG4/ISO/AVC
Duration                         : 4mn 14s
Bit rate                         : 1 468 Kbps
Nominal bit rate                 : 1 500 Kbps
Width                            : 720 pixels
Height                           : 416 pixels
Display aspect ratio             : 1.894
Frame rate                       : 25.000 fps
Resolution                       : 24 bits
Colorimetry                      : 4:2:0
Scan type                        : Progressive
Bits/(Pixel*Frame)               : 0.196
Stream size                      : 44.4 MiB (80%)
Writing library                  : x264 core 68 r1183M f21daff
Encoding settings                : cabac=1 / ref=8 / deblock=1:-1:-1 /
 analyse=0x3:0x133 / me=umh / subme=7 / psy_rd=1.0:0.0 / mixed_ref=1 /
 me_range=32 / chroma_me=1 / trellis=2 / 8x8dct=1 / cqm=0 / deadzone=21,11 /
 chroma_qp_offset=-2 / threads=3 / nr=0 / decimate=1 / mbaff=0 / bframes=3 /
 b_pyramid=1 / b_adapt=2 / b_bias=0 / direct=3 / wpredb=1 / keyint=250 /
 keyint_min=25 / scenecut=40 / rc=2pass / bitrate=1500 / ratetol=1.0 /
 qcomp=0.60 / qpmin=10 / qpmax=51 / qpstep=4 / cplxblur=20.0 / qblur=0.5 /
 ip_ratio=1.40 / pb_ratio=1.30 / aq=1:1.00

Audio

Format                           : MPEG Audio
Format version                   : Version 1
Format profile                   : Layer 3
Codec ID                         : A_MPEG/L3
Codec ID/Hint                    : MP3
Duration                         : 4mn 14s
Bit rate mode                    : Constant
Bit rate                         : 320 Kbps
Channel(s)                       : 2 channels
Sampling rate                    : 48.0 KHz
Resolution                       : 16 bits
Stream size                      : 9.69 MiB (18%)
Writing library                  : LAME3.98r
Encoding settings                : -m j -V 4 -q 2 -lowpass 20.5
Language                         : English

Screens
 
http://i18.photobucket.com/albums/b116/mattlb0619/music_video/umbrella/snapshot20090723172341.jpg 
http://i18.photobucket.com/albums/b116/mattlb0619/music_video/umbrella/snapshot20090723172359.jpg 
http://i18.photobucket.com/albums/b116/mattlb0619/music_video/umbrella/snapshot20090723172454.jpg 
http://i18.photobucket.com/albums/b116/mattlb0619/music_video/umbrella/thumbs20090723172459.jpg
